<?xml version="1.0" encoding="UTF-8" standalone="no"?>
<svg width="300" height="450" viewBox="0 0 300 450" fill="none" xmlns="http://www.w3.org/2000/svg">
  <rect width="300" height="450" rx="8" fill="#1F2937"/>
  <rect x="1" y="1" width="298" height="448" rx="7" stroke="#374151" stroke-opacity="0.5"/>
  
  <!-- Gradient effect -->
  <defs>
    <linearGradient id="paint0_linear" x1="150" y1="0" x2="150" y2="450" gradientUnits="userSpaceOnUse">
      <stop stop-color="#6d28d9" stop-opacity="0.5"/>
      <stop offset="1" stop-color="#1F2937" stop-opacity="0"/>
    </linearGradient>
  </defs>
  <rect width="300" height="450" rx="8" fill="url(#paint0_linear)"/>
  
  <!-- Film icon -->
  <g opacity="0.7">
    <path d="M190 175H110C104.477 175 100 179.477 100 185V265C100 270.523 104.477 275 110 275H190C195.523 275 200 270.523 200 265V185C200 179.477 195.523 175 190 175Z" stroke="#D1D5DB" stroke-width="6" stroke-linecap="round" stroke-linejoin="round"/>
    <path d="M120 175V275" stroke="#D1D5DB" stroke-width="6" stroke-linecap="round" stroke-linejoin="round"/>
    <path d="M180 175V275" stroke="#D1D5DB" stroke-width="6" stroke-linecap="round" stroke-linejoin="round"/>
    <path d="M100 205H200" stroke="#D1D5DB" stroke-width="6" stroke-linecap="round" stroke-linejoin="round"/>
    <path d="M100 245H200" stroke="#D1D5DB" stroke-width="6" stroke-linecap="round" stroke-linejoin="round"/>
  </g>
  
  <!-- Logo text -->
  <text fill="#F9FAFB" font-family="Arial, sans-serif" font-size="24" font-weight="bold" text-anchor="middle" x="150" y="320">
    PhimXuyenDem
  </text>
  
  <!-- Text placeholder -->
  <text fill="#9CA3AF" font-family="Arial, sans-serif" font-size="14" text-anchor="middle" x="150" y="345">
    Poster chưa có sẵn
  </text>
</svg>